
 ######  ########  ########  #### ##    ## ######## ######## ########  
##    ## ##     ## ##     ##  ##  ###   ##    ##    ##       ##     ## 
##       ##     ## ##     ##  ##  ####  ##    ##    ##       ##     ## 
 ######  ########  ########   ##  ## ## ##    ##    ######   ########  
      ## ##        ##   ##    ##  ##  ####    ##    ##       ##   ##   
##    ## ##        ##    ##   ##  ##   ###    ##    ##       ##    ##  
 ######  ##        ##     ## #### ##    ##    ##    ######## ##     ## 

 
 Vampire.Boys.2011.DVDRip.XviD-SPRiNTER  http://www.imdb.com/title/tt1781947/
 Subtitles: N/A

 Date: 2011.03
 Genre: Horror | Romance

Format                           : AVI
Format/Info                      : Audio Video Interleave
File size                        : 699 MiB
Duration                         : 1h 9mn
Overall bit rate                 : 1 397 Kbps
Writing application              : VirtualDubMod 1.5.10.2 (build 2540/release)
Writing library                  : VirtualDubMod build 2540/release

Video
ID                               : 0
Format                           : MPEG-4 Visual
Format profile                   : Advanced Simple@L5
Format settings, BVOP            : 2
Format settings, QPel            : No
Format settings, GMC             : No warppoints
Format settings, Matrix          : Default (H.263)
Codec ID                         : XVID
Codec ID/Hint                    : XviD
Duration                         : 1h 9mn
Bit rate                         : 1 196 Kbps
Width                            : 608 pixels
Height                           : 256 pixels
Display aspect ratio             : 2.35:1
Frame rate                       : 23.976 fps
Color space                      : YUV
Chroma subsampling               : 4:2:0
Bit depth                        : 8 bits
Scan type                        : Progressive
Compression mode                 : Lossy
Bits/(Pixel*Frame)               : 0.320
Stream size                      : 599 MiB (86%)
Writing library                  : XviD 1.1.2 (UTC 2006-11-01)

Audio
ID                               : 1
Format                           : AC-3
Format/Info                      : Audio Coding 3
Mode extension                   : CM (complete main)
Codec ID                         : 2000
Duration                         : 1h 9mn
Bit rate mode                    : Constant
Bit rate                         : 192 Kbps
Channel(s)                       : 2 channels
Channel positions                : Front: L R
Sampling rate                    : 48.0 KHz
Bit depth                        : 16 bits
Compression mode                 : Lossy
Stream size                      : 96.1 MiB (14%)
Alignment                        : Split accross interleaves
Interleave, duration             : 42 ms (1.00 video frame)
Interleave, preload duration     : 500 ms





================================== 
http://thepiratebay.org/user/hiest
==================================





Screen Shots:
 
http://leetleech.org/images/23180282645676540954.png
 
http://leetleech.org/images/29584411472565310875.png
 
http://leetleech.org/images/20788872266585761779.png
 
http://leetleech.org/images/35286888294037625641.png



 ######  ########  ########  #### ##    ## ######## ######## ########  
##    ## ##     ## ##     ##  ##  ###   ##    ##    ##       ##     ## 
##       ##     ## ##     ##  ##  ####  ##    ##    ##       ##     ## 
 ######  ########  ########   ##  ## ## ##    ##    ######   ########  
      ## ##        ##   ##    ##  ##  ####    ##    ##       ##   ##   
##    ## ##        ##    ##   ##  ##   ###    ##    ##       ##    ##  
 ######  ##        ##     ## #### ##    ##    ##    ######## ##     ## 